# xmcd
#
# Track frame offsets:
#	150
#	6060
#	13262
#	18772
#	24175
#	36850
#	44620
#	52975
#	64420
#	75795
#	81737
#	93517
#	105360
#	108590
#	119217
#	128487
#	138092
#	143135
#	153140
#	175320
#
# Disc length: 2398 seconds
#
# Revision: 1
# Processed by: cddbd v1.5.1PL0 Copyright (c) Steve Scherf et al.
# Submitted via: CDex 1.50Beta5
#
DISCID=fb095c14
DTITLE=高屋奈月 - 「フルーツバスケット」オリジナルサウンドトラック Eternal Memories
DYEAR=1900
DGENRE=Soundtrack
TTITLE0=memory -sunshine-
TTITLE1=shackles of the heart
TTITLE2=abyss of despair
TTITLE3=solitude (piano version)
TTITLE4=sea of illusion
TTITLE5=labylinth
TTITLE6=the most foolish wayfare in the world
TTITLE7=extream girl's heart
TTITLE8=King's march
TTITLE9=image -HANAJIMA family-
TTITLE10=PRINCE YUKI
TTITLE11=momentary storm
TTITLE12=melody for episode eight
TTITLE13=one-way love
TTITLE14=breath of spring
TTITLE15=young leaves
TTITLE16=memory -beginning-
TTITLE17=a thaw
TTITLE18=セレナーデ <Pf solo ver.>
TTITLE19=岡崎律子/モゲ太のうた
EXTD=
EXTT0=
EXTT1=
EXTT2=
EXTT3=
EXTT4=
EXTT5=
EXTT6=
EXTT7=
EXTT8=
EXTT9=
EXTT10=
EXTT11=
EXTT12=
EXTT13=
EXTT14=
EXTT15=
EXTT16=
EXTT17=
EXTT18=
EXTT19=
PLAYORDER=
